<svg xmlns="http://www.w3.org/2000/svg" viewBox="207.5799660574573 100.27897601994279 345.2089043874921 561.5350071423827" width="345.2089043874921" height="561.5350071423827">
  <path d="M227.58,382.96Q227.58,382.96,228.08,371.64Q228.58,360.33,231.16,344.87Q233.74,329.41,235.58,312.67Q237.42,295.93,238.38,280.55Q239.33,265.17,239.74,252.83Q240.15,240.49,240.31,233.12Q240.46,225.75,240.17,221.94Q239.88,218.14,239.68,216.98Q239.48,215.83,239.51,215.59Q239.54,215.34,239.63,215.12Q239.72,214.89,239.86,214.69Q240.00,214.49,240.18,214.33Q240.36,214.17,240.58,214.06Q240.79,213.95,241.03,213.89Q241.27,213.83,241.51,213.83Q241.75,213.83,241.99,213.89Q242.23,213.95,242.44,214.07Q242.66,214.18,242.84,214.34Q243.02,214.51,243.16,214.71Q243.29,214.91,243.38,215.14Q243.46,215.36,243.49,215.61Q243.52,215.85,243.44,222.33Q243.35,228.81,243.44,241.36Q243.52,253.90,245.21,272.50Q246.89,291.10,251.15,316.20Q255.41,341.29,261.33,371.92Q267.25,402.55,273.66,435.25Q280.07,467.95,285.55,497.05Q291.03,526.16,294.81,550.07Q298.60,573.97,300.85,590.54Q303.09,607.11,304.17,616.43Q305.25,625.76,305.79,631.74Q306.34,637.72,306.31,639.12Q306.28,640.51,306.28,640.65Q306.28,640.80,306.24,640.94Q306.20,641.07,306.13,641.20Q306.06,641.33,305.96,641.43Q305.86,641.54,305.74,641.61Q305.62,641.69,305.48,641.74Q305.35,641.79,305.20,641.80Q305.06,641.81,304.92,641.79Q304.78,641.77,304.64,641.72Q304.51,641.66,304.39,641.58Q304.28,641.49,304.18,641.38Q304.09,641.27,304.03,641.14Q303.97,641.01,303.93,640.87Q303.90,640.73,301.95,635.92Q299.99,631.11,295.30,617.98Q290.60,604.84,284.24,584.44Q277.87,564.04,271.49,537.53Q265.10,511.01,259.96,480.12Q254.81,449.22,251.71,417.99Q248.61,386.76,247.36,361.10Q246.12,335.43,245.94,317.35Q245.77,299.26,246.77,285.59Q247.77,271.91,250.02,261.73Q252.27,251.54,254.99,244.98Q257.72,238.41,260.44,234.36Q263.17,230.32,266.29,228.02Q269.41,225.72,273.15,224.70Q276.90,223.67,281.28,224.22Q285.67,224.76,290.50,228.85Q295.34,232.94,299.57,240.31Q303.81,247.67,306.57,257.48Q309.34,267.30,310.74,279.35Q312.13,291.41,312.48,303.67Q312.83,315.94,311.85,326.55Q310.87,337.16,308.85,345.27Q306.83,353.38,304.84,358.77Q302.85,364.16,301.59,367.47Q300.33,370.78,299.28,372.76Q298.23,374.74,298.05,374.96Q297.88,375.17,297.65,375.34Q297.43,375.50,297.17,375.61Q296.92,375.71,296.64,375.76Q296.37,375.80,296.09,375.77Q295.82,375.75,295.55,375.66Q295.29,375.57,295.06,375.42Q294.82,375.27,294.63,375.07Q294.44,374.86,294.31,374.62Q294.17,374.38,294.10,374.11Q294.02,373.85,294.01,373.57Q294.00,373.29,294.06,373.02Q294.12,372.75,294.24,372.50Q294.36,372.25,297.95,365.78Q301.54,359.32,306.46,355.47Q311.38,351.62,318.05,348.25Q324.72,344.87,331.93,343.00Q339.13,341.14,345.50,340.77Q351.87,340.41,357.48,341.42Q363.08,342.43,367.59,345.17Q372.09,347.92,375.32,352.82Q378.54,357.72,380.34,364.88Q382.13,372.04,382.78,381.15Q383.43,390.26,382.10,402.12Q380.77,413.98,376.10,431.31Q371.42,448.63,365.06,467.61Q358.69,486.59,351.64,504.02Q344.59,521.46,337.89,536.31Q331.19,551.16,326.30,561.04Q321.41,570.92,317.74,577.61Q314.07,584.30,311.74,588.49Q309.40,592.68,307.47,595.80Q305.54,598.93,302.98,597.25Q300.42,595.57,301.06,591.49Q301.71,587.41,302.93,584.05Q304.15,580.69,306.63,575.45Q309.11,570.20,312.20,562.54Q315.28,554.87,318.48,545.13Q321.68,535.39,324.90,523.51Q328.13,511.62,330.98,498.25Q333.84,484.88,335.86,471.08Q337.88,457.29,339.11,443.37Q340.35,429.46,341.41,415.46Q342.46,401.45,343.51,389.33Q344.56,377.22,345.72,367.04Q346.88,356.86,348.17,347.80Q349.47,338.73,350.55,331.61Q351.63,324.49,352.36,319.25Q353.09,314.01,353.52,310.11Q353.96,306.20,354.25,303.06Q354.54,299.93,354.85,295.55Q355.16,291.18,355.04,288.14Q354.92,285.10,354.63,282.10Q354.33,279.11,354.14,273.56Q353.95,268.01,353.97,264.14Q354.00,260.27,353.85,255.90Q353.70,251.53,353.24,247.05Q352.78,242.57,352.19,238.70Q351.59,234.84,350.49,230.14Q349.38,225.44,348.70,223.93Q348.02,222.42,347.92,221.80Q347.82,221.17,347.87,220.54Q347.92,219.91,348.11,219.31Q348.31,218.71,348.65,218.18Q348.98,217.64,349.44,217.21Q349.89,216.77,350.44,216.45Q350.98,216.13,351.59,215.95Q352.19,215.78,352.82,215.75Q353.45,215.72,354.07,215.84Q354.69,215.97,355.26,216.24Q355.84,216.51,356.33,216.90Q356.82,217.30,357.20,217.80Q357.58,218.31,357.83,218.89Q358.08,219.47,359.52,222.72Q360.97,225.98,362.06,229.65Q363.15,233.33,364.04,239.51Q364.92,245.68,366.07,254.14Q367.23,262.59,368.21,272.70Q369.20,282.81,369.87,295.14Q370.55,307.47,370.77,322.11Q370.99,336.76,370.95,352.59Q370.92,368.41,370.85,384.05Q370.78,399.68,370.71,412.66Q370.65,425.63,370.60,436.07Q370.55,446.51,370.53,455.74Q370.51,464.96,370.69,471.71Q370.86,478.45,371.59,482.91Q372.32,487.36,373.73,491.65Q375.14,495.93,375.67,496.61Q376.21,497.29,376.30,497.61Q376.38,497.94,376.39,498.27Q376.39,498.60,376.32,498.92Q376.24,499.25,376.09,499.54Q375.94,499.84,375.73,500.09Q375.51,500.34,375.24,500.54Q374.97,500.73,374.66,500.85Q374.35,500.97,374.02,501.02Q373.69,501.07,373.36,501.03Q373.03,501.00,372.72,500.88Q372.41,500.77,372.13,500.58Q371.86,500.40,371.63,500.16Q371.41,499.91,371.25,499.62Q371.09,499.33,368.75,494.48Q366.41,489.63,364.05,482.93Q361.68,476.23,357.67,464.00Q353.66,451.77,348.05,433.98Q342.44,416.19,336.66,396.27Q330.89,376.36,325.58,354.11Q320.26,331.87,316.71,310.44Q313.15,289.01,311.87,270.43Q310.58,251.85,310.73,235.35Q310.88,218.85,312.60,206.68Q314.31,194.52,317.54,185.74Q320.77,176.96,324.65,169.92Q328.53,162.88,332.45,157.73Q336.38,152.59,340.16,148.92Q343.95,145.25,347.80,142.68Q351.65,140.12,355.79,138.57Q359.92,137.02,364.18,136.33Q368.44,135.64,372.76,135.72Q377.07,135.80,381.72,137.46Q386.37,139.12,390.89,142.83Q395.40,146.55,399.15,151.86Q402.90,157.16,405.77,163.61Q408.64,170.06,410.47,177.06Q412.29,184.06,413.03,191.05Q413.76,198.03,412.88,205.93Q411.99,213.82,408.70,222.63Q405.40,231.43,400.00,240.93Q394.60,250.44,388.27,260.28Q381.93,270.12,375.73,279.15Q369.53,288.18,364.24,295.55Q358.95,302.92,355.05,308.11Q351.16,313.29,348.92,316.69Q346.68,320.09,344.85,322.72Q343.02,325.34,343.18,321.60Q343.34,317.85,347.30,315.24Q351.26,312.62,353.92,311.10Q356.58,309.58,359.75,307.96Q362.92,306.33,366.87,304.54Q370.82,302.74,375.72,300.58Q380.63,298.42,387.35,295.16Q394.06,291.91,401.88,287.63Q409.70,283.35,417.62,278.63Q425.53,273.91,433.63,268.55Q441.72,263.18,449.12,257.74Q456.51,252.30,463.28,246.69Q470.06,241.09,476.26,234.84Q482.46,228.59,487.32,222.21Q492.17,215.83,495.47,209.55Q498.77,203.26,500.49,197.13Q502.21,191.00,502.83,184.80Q503.45,178.60,502.65,171.06Q501.85,163.52,499.48,156.04Q497.12,148.56,493.64,142.82Q490.16,137.09,486.13,132.66Q482.11,128.23,477.84,125.89Q473.57,123.55,467.93,122.87Q462.30,122.19,453.53,125.88Q444.75,129.58,434.67,138.34Q424.59,147.10,415.18,159.08Q405.76,171.06,397.98,184.25Q390.20,197.44,385.87,208.67Q381.54,219.90,380.11,228.58Q378.67,237.25,379.65,243.52Q380.63,249.79,384.99,253.51Q389.36,257.24,397.37,258.81Q405.38,260.38,416.45,260.10Q427.53,259.82,439.96,258.11Q452.39,256.40,463.22,254.82Q474.06,253.25,482.83,252.64Q491.61,252.03,498.95,252.41Q506.29,252.79,512.38,255.81Q518.47,258.83,523.06,265.22Q527.66,271.61,529.87,281.49Q532.08,291.36,531.55,306.76Q531.03,322.17,525.85,341.38Q520.67,360.58,510.13,380.33Q499.59,400.07,486.88,417.52Q474.18,434.97,462.43,447.60Q450.68,460.23,440.80,468.79Q430.92,477.35,423.42,482.29Q415.91,487.22,410.52,489.21Q405.12,491.20,401.44,489.13Q397.76,487.07,396.38,476.44Q395.00,465.81,396.11,447.22Q397.23,428.63,402.33,404.69Q407.43,380.76,416.40,354.52Q425.37,328.28,436.02,304.71Q446.68,281.13,458.00,260.73Q469.33,240.34,479.33,224.06Q489.33,207.78,497.13,196.41Q504.94,185.03,510.73,177.24Q516.53,169.45,520.12,164.87Q523.72,160.29,525.81,157.48Q527.90,154.66,530.34,153.14Q532.78,151.62,532.78,151.62Q532.78,151.63,532.79,151.63Q532.79,151.63,531.32,154.01Q529.85,156.38,527.35,158.79Q524.85,161.19,521.21,165.71Q517.57,170.22,511.80,178.01Q506.03,185.79,498.27,197.15Q490.51,208.51,480.55,224.77Q470.59,241.04,459.34,261.40Q448.09,281.76,437.52,305.29Q426.95,328.82,418.09,354.98Q409.24,381.14,404.28,404.95Q399.32,428.75,398.37,447.13Q397.42,465.52,398.62,475.44Q399.81,485.36,402.49,487.56Q405.16,489.76,410.21,487.98Q415.26,486.21,422.70,481.33Q430.14,476.44,439.97,467.93Q449.80,459.42,461.50,446.84Q473.21,434.26,485.87,416.89Q498.53,399.51,509.02,379.88Q519.51,360.26,524.67,341.19Q529.83,322.12,530.36,306.87Q530.90,291.61,528.78,281.95Q526.66,272.28,522.27,266.08Q517.87,259.87,512.03,256.93Q506.18,253.99,498.94,253.62Q491.69,253.26,482.96,253.86Q474.23,254.47,463.40,256.06Q452.56,257.64,440.06,259.37Q427.56,261.09,416.35,261.37Q405.13,261.66,396.84,259.97Q388.56,258.28,384.01,254.22Q379.46,250.16,378.42,243.61Q377.38,237.06,378.83,228.24Q380.28,219.42,384.63,208.08Q388.98,196.73,396.79,183.44Q404.59,170.14,414.07,158.03Q423.54,145.91,433.80,136.95Q444.05,127.99,453.23,124.13Q462.41,120.28,468.49,121.01Q474.57,121.74,478.80,124.56Q483.02,127.39,487.13,131.91Q491.24,136.43,494.79,142.29Q498.35,148.16,500.76,155.76Q503.17,163.37,504.00,171.05Q504.82,178.73,504.21,185.06Q503.60,191.39,501.87,197.68Q500.14,203.97,496.82,210.40Q493.50,216.83,488.64,223.35Q483.78,229.88,477.59,236.28Q471.40,242.68,464.68,248.45Q457.97,254.23,450.66,259.89Q443.35,265.55,435.38,271.22Q427.40,276.89,419.67,282.01Q411.94,287.13,404.36,291.96Q396.78,296.80,390.37,300.84Q383.96,304.87,379.23,307.68Q374.51,310.49,370.67,312.40Q366.84,314.32,363.70,315.79Q360.56,317.27,355.54,319.53Q350.51,321.79,346.55,323.20Q342.59,324.60,343.61,321.55Q344.63,318.50,347.37,315.50Q350.12,312.51,353.98,307.32Q357.85,302.14,363.11,294.76Q368.37,287.39,374.53,278.36Q380.68,269.32,386.95,259.49Q393.22,249.65,398.49,240.24Q403.77,230.82,406.91,222.21Q410.06,213.61,410.80,205.94Q411.55,198.28,410.66,191.52Q409.77,184.76,407.78,178.08Q405.78,171.41,402.78,165.45Q399.78,159.50,396.04,154.94Q392.30,150.37,388.32,147.29Q384.33,144.21,380.51,142.61Q376.69,141.02,372.81,140.61Q368.94,140.21,364.99,140.43Q361.05,140.66,357.08,141.65Q353.12,142.64,349.19,144.67Q345.27,146.71,341.35,150.05Q337.43,153.40,333.58,158.47Q329.72,163.53,325.91,170.49Q322.11,177.45,318.96,186.09Q315.81,194.73,314.16,206.80Q312.52,218.86,312.45,235.29Q312.37,251.72,313.76,270.19Q315.15,288.67,318.84,309.99Q322.53,331.32,328.04,353.44Q333.54,375.57,339.59,395.36Q345.63,415.14,351.62,432.76Q357.61,450.38,362.10,462.29Q366.58,474.19,369.63,480.50Q372.68,486.81,374.45,492.05Q376.21,497.29,376.30,497.61Q376.38,497.94,376.39,498.27Q376.39,498.60,376.32,498.92Q376.24,499.25,376.09,499.54Q375.94,499.84,375.73,500.09Q375.51,500.34,375.24,500.54Q374.97,500.73,374.66,500.85Q374.35,500.97,374.02,501.02Q373.69,501.07,373.36,501.03Q373.03,501.00,372.72,500.88Q372.41,500.77,372.13,500.58Q371.86,500.40,371.63,500.16Q371.41,499.91,371.25,499.62Q371.09,499.33,370.64,496.53Q370.18,493.73,370.00,490.68Q369.81,487.63,369.59,483.06Q369.37,478.50,369.14,471.73Q368.91,464.96,368.85,455.74Q368.80,446.52,368.74,436.07Q368.69,425.63,368.61,412.66Q368.53,399.69,368.41,384.06Q368.28,368.43,368.04,352.64Q367.80,336.85,367.21,322.31Q366.62,307.77,365.44,295.62Q364.26,283.46,362.60,273.64Q360.93,263.82,358.86,255.79Q356.79,247.76,354.67,242.22Q352.55,236.67,351.46,233.42Q350.37,230.17,349.20,226.29Q348.03,222.42,347.92,221.80Q347.82,221.17,347.87,220.54Q347.92,219.91,348.11,219.31Q348.31,218.71,348.65,218.18Q348.98,217.64,349.44,217.21Q349.89,216.77,350.43,216.45Q350.98,216.13,351.59,215.95Q352.19,215.78,352.82,215.75Q353.45,215.72,354.07,215.84Q354.69,215.97,355.26,216.24Q355.84,216.51,356.33,216.90Q356.82,217.30,357.20,217.80Q357.58,218.31,357.83,218.89Q358.08,219.47,358.46,221.53Q358.85,223.58,359.43,228.57Q360.02,233.55,360.62,237.47Q361.21,241.39,362.04,246.13Q362.86,250.86,363.37,255.52Q363.88,260.18,363.97,264.10Q364.07,268.01,363.87,273.57Q363.68,279.12,363.37,282.23Q363.05,285.34,362.23,288.83Q361.40,292.31,360.11,296.52Q358.81,300.74,357.94,303.76Q357.06,306.79,356.03,310.56Q354.99,314.33,353.98,319.51Q352.96,324.69,351.90,331.81Q350.85,338.93,349.60,347.98Q348.34,357.03,347.23,367.19Q346.13,377.35,345.15,389.46Q344.17,401.57,343.21,415.60Q342.26,429.62,341.14,443.61Q340.03,457.59,338.18,471.49Q336.33,485.39,333.71,498.88Q331.09,512.38,328.18,524.43Q325.28,536.48,322.51,546.47Q319.74,556.46,317.25,564.45Q314.76,572.44,312.97,577.99Q311.18,583.53,309.78,586.65Q308.38,589.76,305.46,592.82Q302.53,595.87,305.01,593.68Q307.49,591.49,310.21,587.58Q312.93,583.68,316.57,577.01Q320.21,570.33,325.07,560.46Q329.92,550.59,336.58,535.75Q343.23,520.91,350.22,503.50Q357.20,486.10,363.49,467.15Q369.78,448.19,374.34,430.99Q378.89,413.78,380.09,402.10Q381.29,390.43,380.49,381.55Q379.70,372.67,377.84,366.00Q375.99,359.32,373.15,354.88Q370.32,350.44,366.43,347.70Q362.53,344.96,357.28,343.94Q352.03,342.91,345.98,343.47Q339.93,344.03,333.19,346.07Q326.45,348.11,320.42,351.62Q314.38,355.13,310.21,359.14Q306.05,363.16,302.14,368.95Q298.23,374.74,298.05,374.96Q297.88,375.17,297.65,375.34Q297.43,375.50,297.17,375.61Q296.92,375.71,296.64,375.76Q296.37,375.80,296.09,375.77Q295.82,375.75,295.55,375.66Q295.29,375.57,295.06,375.42Q294.82,375.27,294.63,375.07Q294.44,374.86,294.31,374.62Q294.17,374.38,294.10,374.11Q294.02,373.85,294.01,373.57Q294.00,373.29,294.06,373.02Q294.12,372.75,294.24,372.50Q294.36,372.25,295.92,370.81Q297.48,369.37,299.31,366.44Q301.14,363.51,303.17,358.24Q305.21,352.98,307.12,344.99Q309.03,337.00,309.89,326.50Q310.75,316.01,310.24,303.86Q309.73,291.71,308.15,279.91Q306.57,268.11,303.67,258.79Q300.77,249.46,296.62,242.87Q292.47,236.27,288.45,233.02Q284.43,229.77,281.03,228.93Q277.63,228.09,274.37,228.39Q271.12,228.68,267.99,230.17Q264.87,231.67,261.86,235.28Q258.84,238.89,256.16,245.35Q253.47,251.81,251.24,261.91Q249.02,272.00,248.03,285.63Q247.04,299.25,247.22,317.31Q247.41,335.37,248.67,361.00Q249.93,386.63,253.05,417.81Q256.17,449.00,261.34,479.84Q266.51,510.67,272.92,537.13Q279.33,563.59,285.75,583.93Q292.16,604.28,296.92,617.33Q301.67,630.38,303.98,635.45Q306.28,640.51,306.28,640.65Q306.28,640.80,306.24,640.94Q306.20,641.07,306.13,641.20Q306.06,641.33,305.96,641.43Q305.86,641.54,305.74,641.61Q305.62,641.69,305.48,641.74Q305.35,641.79,305.20,641.80Q305.06,641.81,304.92,641.79Q304.78,641.77,304.64,641.72Q304.51,641.66,304.39,641.58Q304.28,641.49,304.18,641.38Q304.09,641.27,304.03,641.14Q303.97,641.01,303.93,640.87Q303.90,640.73,304.47,639.28Q305.04,637.83,304.48,631.87Q303.92,625.91,302.82,616.61Q301.71,607.30,299.44,590.75Q297.16,574.20,293.32,550.33Q289.49,526.45,283.95,497.36Q278.40,468.28,271.90,435.60Q265.39,402.92,259.34,372.29Q253.29,341.66,248.84,316.50Q244.39,291.35,242.45,272.65Q240.51,253.96,240.09,241.39Q239.66,228.81,239.57,222.32Q239.48,215.83,239.51,215.59Q239.54,215.34,239.63,215.12Q239.72,214.89,239.86,214.69Q240.00,214.49,240.18,214.33Q240.36,214.17,240.58,214.06Q240.79,213.95,241.03,213.89Q241.27,213.83,241.51,213.83Q241.75,213.83,241.99,213.89Q242.23,213.95,242.44,214.07Q242.66,214.18,242.84,214.34Q243.02,214.51,243.16,214.71Q243.29,214.91,243.38,215.14Q243.46,215.36,243.49,215.61Q243.52,215.85,243.31,217.00Q243.10,218.16,242.77,221.96Q242.44,225.77,242.43,233.16Q242.43,240.55,242.22,252.93Q242.01,265.31,241.33,280.78Q240.66,296.24,239.19,313.12Q237.72,330.00,235.67,345.56Q233.62,361.12,230.61,372.04Q227.60,382.96,227.58,382.96Z" fill="#000" />
</svg>